<?xml version="1.0" encoding="UTF-8" standalone="no"?>
<!DOCTYPE svg PUBLIC "-//W3C//DTD SVG 20010904//EN" "http://www.w3.org/TR/2001/REC-SVG-20010904/DTD/svg10.dtd">
<svg version="1.0" xmlns="http://www.w3.org/2000/svg" width="1328.000000pt" height="252.000000pt" viewBox="0 0 1328.000000 252.000000" preserveAspectRatio="xMidYMid meet">

<g transform="translate(0.000000,252.000000) scale(0.100000,-0.100000)" fill="#000000" stroke="none">
<path d="M965 2476 c-68 -27 -110 -49 -109 -57 1 -14 140 -415 148 -428 2 -3 39 -4 81 -1 l77 5 74 210 c41 116 72 215 70 221 -3 8 -218 96 -229 93 -1 0 -51 -20 -112 -43z"/>
<path d="M263 2037 l-263 -152 0 -625 0 -625 541 -312 541 -313 539 311 539 312 0 627 0 627 -262 152 -263 151 -3 -71 c-2 -40 -1 -77 1 -83 3 -6 91 -60 196 -121 l191 -110 0 -546 0 -545 -467 -270 c-256 -148 -471 -268 -477 -266 -6 2 -219 124 -473 270 l-463 267 3 545 2 545 198 114 197 114 0 78 c0 44 -3 79 -7 79 -5 -1 -126 -69 -270 -153z"/>
<path d="M830 2027 c-128 -43 -214 -117 -264 -228 -28 -61 -48 -139 -36 -139 5 0 72 22 150 49 78 27 138 46 134 41 -5 -4 -83 -49 -174 -100 -91 -51 -167 -94 -168 -96 -5 -3 -31 -380 -32 -442 l0 -44 57 51 c32 27 59 49 60 48 1 -2 -15 -115 -36 -252 -29 -186 -36 -253 -27 -261 8 -8 255 -152 378 -221 4 -2 28 62 54 142 l46 146 -32 157 c-18 86 -36 162 -41 168 -5 6 -53 35 -108 64 l-99 54 -26 134 c-14 73 -26 138 -26 145 0 6 15 -10 33 -37 30 -46 40 -52 162 -103 72 -31 131 -57 133 -58 2 -1 27 -89 56 -194 30 -106 55 -194 58 -196 2 -2 25 76 52 173 27 97 52 186 56 198 6 15 47 38 142 78 130 56 135 59 166 109 32 50 33 51 26 17 -4 -19 -17 -86 -29 -149 l-21 -115 -101 -55 c-56 -31 -104 -59 -108 -62 -3 -3 -21 -78 -40 -165 l-34 -159 46 -145 c25 -80 46 -146 48 -148 2 -2 381 213 393 224 2 1 -14 118 -35 258 -21 141 -37 256 -34 256 3 0 29 -23 58 -52 29 -28 54 -50 56 -47 5 4 -22 458 -28 475 -1 6 -82 55 -179 108 -97 54 -176 100 -176 102 0 2 65 -20 145 -48 80 -28 148 -48 151 -45 9 9 -25 117 -54 170 -32 59 -104 128 -168 160 -64 32 -153 61 -162 52 -4 -3 -16 -32 -28 -63 l-21 -57 -120 -3 -121 -3 -23 66 c-13 36 -28 65 -34 65 -5 0 -39 -11 -75 -23z"/>
<path d="M11092 1933 c-84 -41 -82 -167 4 -208 48 -23 99 -13 136 27 51 55 31 155 -37 184 -44 18 -62 17 -103 -3z"/>
<path d="M12280 1933 c-40 -14 -40 -16 -40 -623 0 -556 1 -588 18 -603 27 -25 106 -23 132 3 20 20 20 33 20 600 l0 581 -25 24 c-23 24 -67 32 -105 18z"/>
<path d="M3099 1923 c-43 -7 -65 -41 -104 -163 -20 -63 -102 -313 -181 -554 -156 -471 -155 -466 -102 -499 13 -8 38 -17 55 -20 66 -13 68 -9 249 548 91 281 169 513 173 517 4 5 84 -228 179 -517 191 -581 184 -566 259 -546 57 16 87 51 79 93 -4 18 -86 273 -184 567 -205 618 -181 575 -315 577 -45 1 -94 0 -108 -3z"/>
<path d="M10197 1912 c-15 -17 -17 -73 -17 -605 l0 -586 22 -15 c31 -22 91 -20 119 3 l24 19 0 376 0 376 168 0 c101 0 176 -4 189 -11 44 -24 48 -58 48 -409 0 -317 1 -331 20 -350 30 -30 94 -27 126 5 l25 25 -3 363 c-3 315 -5 366 -20 392 -22 40 -64 78 -118 106 -42 22 -58 24 -237 27 l-191 4 -4 128 c-2 109 -6 131 -22 149 -25 28 -105 30 -129 3z"/>
<path d="M13132 1914 c-21 -14 -22 -22 -22 -150 l0 -134 -180 0 c-197 0 -243 -10 -317 -66 -69 -53 -73 -71 -73 -412 0 -336 2 -350 62 -395 61 -47 108 -57 258 -57 155 0 163 3 163 70 0 64 -8 68 -148 71 -179 6 -169 -9 -173 267 -4 260 1 311 33 346 l24 26 176 0 175 0 0 -379 0 -380 22 -15 c35 -25 94 -20 124 9 l24 25 -2 581 c-3 562 -4 581 -22 595 -26 19 -96 18 -124 -2z"/>
<path d="M3930 1616 c-73 -19 -120 -54 -144 -105 -20 -44 -21 -60 -21 -414 l0 -369 24 -19 c34 -28 96 -25 126 6 l25 24 0 351 c0 426 -14 390 155 390 104 0 117 2 136 21 17 17 20 29 16 62 -3 23 -14 47 -23 54 -23 17 -232 16 -294 -1z"/>
<path d="M4480 1621 c-90 -29 -161 -92 -179 -158 -7 -23 -11 -174 -11 -385 0 -335 1 -349 20 -368 14 -14 33 -20 68 -20 84 0 81 -14 84 382 4 432 -7 403 154 403 l108 0 23 -34 c23 -34 23 -36 23 -372 0 -326 1 -340 20 -359 14 -14 33 -20 68 -20 84 0 81 -14 84 382 4 430 -7 402 150 406 101 3 105 2 128 -23 l25 -27 5 -355 c6 -403 1 -383 90 -383 83 0 80 -14 80 391 0 216 -4 369 -11 392 -13 47 -62 97 -125 128 -45 22 -62 24 -189 24 -131 0 -144 -2 -189 -25 l-49 -25 -51 25 c-45 22 -65 25 -176 27 -69 1 -136 -1 -150 -6z"/>
<path d="M5695 1617 c-70 -23 -122 -65 -150 -120 l-25 -51 0 -285 c0 -323 4 -340 76 -399 64 -53 107 -62 298 -62 159 0 175 2 221 24 59 27 96 60 122 107 16 31 18 61 18 329 0 283 -1 297 -22 335 -28 52 -57 79 -118 107 -45 20 -67 23 -215 25 -114 2 -177 -2 -205 -10z m351 -152 c41 -28 45 -58 42 -318 l-3 -247 -27 -27 c-26 -25 -35 -28 -128 -31 -129 -6 -186 3 -216 33 l-24 24 0 256 c0 260 3 284 39 312 25 19 290 17 317 -2z"/>
<path d="M6555 1621 c-86 -21 -146 -71 -165 -139 -6 -22 -10 -178 -10 -390 l0 -353 25 -24 c30 -30 92 -34 124 -7 20 17 21 25 23 373 3 335 4 358 22 378 17 19 30 21 137 21 137 0 149 6 149 74 0 69 -15 76 -156 75 -65 -1 -132 -4 -149 -8z"/>
<path d="M7070 1623 c-8 -3 -23 -12 -32 -21 -17 -14 -18 -53 -18 -548 0 -471 2 -534 16 -548 37 -38 119 -29 141 14 10 19 13 139 13 493 l0 467 173 0 174 0 24 -26 c24 -26 24 -26 27 -284 l3 -259 -29 -32 -29 -33 -122 -5 c-93 -5 -124 -10 -131 -21 -15 -23 -12 -73 6 -98 14 -21 22 -22 147 -22 124 0 135 2 192 29 69 32 109 74 125 129 13 48 13 555 0 603 -18 63 -51 102 -115 134 l-60 30 -245 2 c-135 1 -252 -1 -260 -4z"/>
<path d="M8057 1619 c-79 -18 -140 -69 -157 -130 -6 -19 -10 -189 -10 -396 0 -350 1 -364 20 -383 28 -28 98 -27 128 0 22 21 22 23 22 375 0 431 -14 395 153 395 136 0 157 10 157 71 0 69 -20 79 -157 78 -65 -1 -135 -5 -156 -10z"/>
<path d="M8583 1612 c-71 -25 -117 -63 -144 -119 -24 -47 -24 -54 -24 -333 l0 -285 25 -45 c30 -53 96 -105 152 -121 25 -6 109 -9 217 -7 171 3 177 4 222 30 67 39 105 87 118 148 14 66 14 493 0 559 -15 72 -56 123 -126 157 -56 28 -64 29 -223 32 -139 2 -173 -1 -217 -16z m359 -143 c41 -22 48 -64 48 -304 0 -324 2 -320 -199 -320 -158 0 -183 9 -200 72 -14 49 -14 447 -1 495 17 62 36 68 193 68 80 0 147 -5 159 -11z"/>
<path d="M9510 1621 c-92 -30 -161 -92 -181 -163 -17 -64 -7 -207 17 -249 26 -45 101 -95 164 -108 28 -6 113 -11 188 -11 108 0 142 -3 159 -15 51 -36 55 -161 7 -206 -25 -23 -31 -24 -174 -24 -143 0 -149 1 -174 24 -14 13 -28 40 -31 60 -12 76 -14 79 -50 91 -42 14 -87 6 -110 -20 -39 -43 2 -195 64 -239 77 -55 104 -61 301 -61 174 0 188 2 235 24 110 52 140 103 140 241 0 115 -19 164 -79 210 -70 53 -122 65 -287 65 l-151 0 -29 29 c-26 26 -29 36 -29 89 0 50 4 66 26 91 l26 31 148 0 148 0 26 -31 c18 -21 26 -42 26 -68 0 -50 24 -71 81 -71 64 0 89 21 89 73 0 98 -43 167 -134 215 -49 26 -58 27 -221 29 -93 1 -181 -2 -195 -6z"/>
<path d="M11080 1610 c-19 -19 -20 -33 -20 -448 l0 -429 23 -21 c31 -29 99 -30 127 -2 19 19 20 33 20 448 0 492 3 472 -81 472 -36 0 -54 -5 -69 -20z"/>
<path d="M11525 1614 c-57 -20 -114 -70 -136 -118 -17 -37 -19 -70 -19 -331 0 -262 2 -294 19 -331 24 -52 53 -80 116 -110 47 -22 61 -24 230 -24 168 0 183 2 230 24 92 43 134 100 142 195 7 76 -15 106 -80 106 -57 0 -87 -25 -87 -72 0 -49 -24 -89 -61 -102 -40 -14 -222 -14 -271 -1 -67 19 -68 23 -68 318 l0 263 24 24 c29 29 100 39 227 33 81 -4 92 -7 117 -31 25 -25 27 -35 30 -122 l4 -95 -144 0 c-128 0 -147 -2 -161 -18 -21 -23 -22 -81 -3 -108 13 -18 28 -19 220 -19 269 0 251 -15 251 208 0 154 -1 164 -25 207 -29 52 -73 84 -143 105 -69 20 -354 20 -412 -1z"/>
<path d="M3133 1170 c-35 -21 -63 -66 -63 -100 0 -36 29 -85 61 -104 64 -38 156 4 175 79 15 60 -52 145 -115 145 -14 0 -40 -9 -58 -20z"/>
<path d="M1040 529 c-39 -16 -59 -39 -70 -80 -19 -70 26 -136 98 -146 68 -9 132 46 132 114 0 38 -32 89 -69 108 -34 17 -55 18 -91 4z"/>
</g>
</svg>